<?xml version="1.0" encoding="UTF-8" standalone="no"?><svg xmlns="http://www.w3.org/2000/svg" xmlns:xlink="http://www.w3.org/1999/xlink" contentScriptType="application/ecmascript" contentStyleType="text/css" height="489px" preserveAspectRatio="none" style="width:807px;height:489px;" version="1.1" viewBox="0 0 807 489" width="807px" zoomAndPan="magnify"><defs><filter height="300%" id="fujjj38jpkq5v" width="300%" x="-1" y="-1"><feGaussianBlur result="blurOut" stdDeviation="2.0"/><feColorMatrix in="blurOut" result="blurOut2" type="matrix" values="0 0 0 0 0 0 0 0 0 0 0 0 0 0 0 0 0 0 .4 0"/><feOffset dx="4.0" dy="4.0" in="blurOut2" result="blurOut3"/><feBlend in="SourceGraphic" in2="blurOut3" mode="normal"/></filter></defs><g><text fill="#000000" font-family="sans-serif" font-size="18" lengthAdjust="spacingAndGlyphs" textLength="198" x="302.25" y="28.708">Add Token Success Flow</text><line style="stroke:#A80036;stroke-width:1.0;stroke-dasharray:5.0,5.0;" x1="52" x2="52" y1="123.25" y2="405.4453"/><line style="stroke:#A80036;stroke-width:1.0;stroke-dasharray:5.0,5.0;" x1="231.5" x2="231.5" y1="123.25" y2="405.4453"/><line style="stroke:#A80036;stroke-width:1.0;stroke-dasharray:5.0,5.0;" x1="410.5" x2="410.5" y1="123.25" y2="405.4453"/><line style="stroke:#A80036;stroke-width:1.0;stroke-dasharray:5.0,5.0;" x1="589" x2="589" y1="123.25" y2="405.4453"/><line style="stroke:#A80036;stroke-width:1.0;stroke-dasharray:5.0,5.0;" x1="656" x2="656" y1="123.25" y2="405.4453"/><line style="stroke:#A80036;stroke-width:1.0;stroke-dasharray:5.0,5.0;" x1="765.5" x2="765.5" y1="123.25" y2="405.4453"/><text fill="#000000" font-family="sans-serif" font-size="14" lengthAdjust="spacingAndGlyphs" textLength="89" x="5" y="119.9482">TelegramUser</text><ellipse cx="52.5" cy="49.9531" fill="#FEFECE" filter="url(#fujjj38jpkq5v)" rx="8" ry="8" style="stroke:#A80036;stroke-width:2.0;"/><path d="M52.5,57.9531 L52.5,84.9531 M39.5,65.9531 L65.5,65.9531 M52.5,84.9531 L39.5,99.9531 M52.5,84.9531 L65.5,99.9531 " fill="none" filter="url(#fujjj38jpkq5v)" style="stroke:#A80036;stroke-width:2.0;"/><text fill="#000000" font-family="sans-serif" font-size="14" lengthAdjust="spacingAndGlyphs" textLength="89" x="5" y="417.4404">TelegramUser</text><ellipse cx="52.5" cy="430.7422" fill="#FEFECE" filter="url(#fujjj38jpkq5v)" rx="8" ry="8" style="stroke:#A80036;stroke-width:2.0;"/><path d="M52.5,438.7422 L52.5,465.7422 M39.5,446.7422 L65.5,446.7422 M52.5,465.7422 L39.5,480.7422 M52.5,465.7422 L65.5,480.7422 " fill="none" filter="url(#fujjj38jpkq5v)" style="stroke:#A80036;stroke-width:2.0;"/><rect fill="#FEFECE" filter="url(#fujjj38jpkq5v)" height="30.2969" style="stroke:#A80036;stroke-width:1.5;" width="36" x="211.5" y="87.9531"/><text fill="#000000" font-family="sans-serif" font-size="14" lengthAdjust="spacingAndGlyphs" textLength="22" x="218.5" y="107.9482">Bot</text><rect fill="#FEFECE" filter="url(#fujjj38jpkq5v)" height="30.2969" style="stroke:#A80036;stroke-width:1.5;" width="36" x="211.5" y="404.4453"/><text fill="#000000" font-family="sans-serif" font-size="14" lengthAdjust="spacingAndGlyphs" textLength="22" x="218.5" y="424.4404">Bot</text><rect fill="#FEFECE" filter="url(#fujjj38jpkq5v)" height="30.2969" style="stroke:#A80036;stroke-width:1.5;" width="40" x="388.5" y="87.9531"/><text fill="#000000" font-family="sans-serif" font-size="14" lengthAdjust="spacingAndGlyphs" textLength="26" x="395.5" y="107.9482">Hub</text><rect fill="#FEFECE" filter="url(#fujjj38jpkq5v)" height="30.2969" style="stroke:#A80036;stroke-width:1.5;" width="40" x="388.5" y="404.4453"/><text fill="#000000" font-family="sans-serif" font-size="14" lengthAdjust="spacingAndGlyphs" textLength="26" x="395.5" y="424.4404">Hub</text><text fill="#000000" font-family="sans-serif" font-size="14" lengthAdjust="spacingAndGlyphs" textLength="59" x="557" y="119.9482">Database</text><path d="M571.5,70.9531 C571.5,60.9531 589.5,60.9531 589.5,60.9531 C589.5,60.9531 607.5,60.9531 607.5,70.9531 L607.5,96.9531 C607.5,106.9531 589.5,106.9531 589.5,106.9531 C589.5,106.9531 571.5,106.9531 571.5,96.9531 L571.5,70.9531 " fill="#FEFECE" filter="url(#fujjj38jpkq5v)" style="stroke:#000000;stroke-width:1.5;"/><path d="M571.5,70.9531 C571.5,80.9531 589.5,80.9531 589.5,80.9531 C589.5,80.9531 607.5,80.9531 607.5,70.9531 " fill="none" style="stroke:#000000;stroke-width:1.5;"/><text fill="#000000" font-family="sans-serif" font-size="14" lengthAdjust="spacingAndGlyphs" textLength="59" x="557" y="417.4404">Database</text><path d="M571.5,430.7422 C571.5,420.7422 589.5,420.7422 589.5,420.7422 C589.5,420.7422 607.5,420.7422 607.5,430.7422 L607.5,456.7422 C607.5,466.7422 589.5,466.7422 589.5,466.7422 C589.5,466.7422 571.5,466.7422 571.5,456.7422 L571.5,430.7422 " fill="#FEFECE" filter="url(#fujjj38jpkq5v)" style="stroke:#000000;stroke-width:1.5;"/><path d="M571.5,430.7422 C571.5,440.7422 589.5,440.7422 589.5,440.7422 C589.5,440.7422 607.5,440.7422 607.5,430.7422 " fill="none" style="stroke:#000000;stroke-width:1.5;"/><rect fill="#FEFECE" filter="url(#fujjj38jpkq5v)" height="30.2969" style="stroke:#A80036;stroke-width:1.5;" width="44" x="632" y="87.9531"/><text fill="#000000" font-family="sans-serif" font-size="14" lengthAdjust="spacingAndGlyphs" textLength="30" x="639" y="107.9482">Auth</text><rect fill="#FEFECE" filter="url(#fujjj38jpkq5v)" height="30.2969" style="stroke:#A80036;stroke-width:1.5;" width="44" x="632" y="404.4453"/><text fill="#000000" font-family="sans-serif" font-size="14" lengthAdjust="spacingAndGlyphs" textLength="30" x="639" y="424.4404">Auth</text><rect fill="#FEFECE" filter="url(#fujjj38jpkq5v)" height="30.2969" style="stroke:#A80036;stroke-width:1.5;" width="59" x="734.5" y="87.9531"/><text fill="#000000" font-family="sans-serif" font-size="14" lengthAdjust="spacingAndGlyphs" textLength="45" x="741.5" y="107.9482">GitHub</text><rect fill="#FEFECE" filter="url(#fujjj38jpkq5v)" height="30.2969" style="stroke:#A80036;stroke-width:1.5;" width="59" x="734.5" y="404.4453"/><text fill="#000000" font-family="sans-serif" font-size="14" lengthAdjust="spacingAndGlyphs" textLength="45" x="741.5" y="424.4404">GitHub</text><polygon fill="#A80036" points="219.5,150.3828,229.5,154.3828,219.5,158.3828,223.5,154.3828" style="stroke:#A80036;stroke-width:1.0;"/><line style="stroke:#A80036;stroke-width:1.0;" x1="52.5" x2="225.5" y1="154.3828" y2="154.3828"/><text fill="#000000" font-family="sans-serif" font-size="13" lengthAdjust="spacingAndGlyphs" textLength="155" x="59.5" y="149.3169">Chat ID, Token, TokenAlias</text><polygon fill="#A80036" points="398.5,179.5156,408.5,183.5156,398.5,187.5156,402.5,183.5156" style="stroke:#A80036;stroke-width:1.0;"/><line style="stroke:#A80036;stroke-width:1.0;" x1="231.5" x2="404.5" y1="183.5156" y2="183.5156"/><text fill="#000000" font-family="sans-serif" font-size="13" lengthAdjust="spacingAndGlyphs" textLength="155" x="238.5" y="178.4497">Chat ID, Token, TokenAlias</text><polygon fill="#A80036" points="644,208.6484,654,212.6484,644,216.6484,648,212.6484" style="stroke:#A80036;stroke-width:1.0;"/><line style="stroke:#A80036;stroke-width:1.0;" x1="410.5" x2="650" y1="212.6484" y2="212.6484"/><text fill="#000000" font-family="sans-serif" font-size="13" lengthAdjust="spacingAndGlyphs" textLength="82" x="417.5" y="207.5825">Validate token</text><polygon fill="#A80036" points="754,237.7813,764,241.7813,754,245.7813,758,241.7813" style="stroke:#A80036;stroke-width:1.0;"/><line style="stroke:#A80036;stroke-width:1.0;" x1="656" x2="760" y1="241.7813" y2="241.7813"/><text fill="#000000" font-family="sans-serif" font-size="13" lengthAdjust="spacingAndGlyphs" textLength="64" x="663" y="236.7153">Auth token</text><polygon fill="#A80036" points="667,266.9141,657,270.9141,667,274.9141,663,270.9141" style="stroke:#A80036;stroke-width:1.0;"/><line style="stroke:#A80036;stroke-width:1.0;stroke-dasharray:2.0,2.0;" x1="661" x2="765" y1="270.9141" y2="270.9141"/><text fill="#000000" font-family="sans-serif" font-size="13" lengthAdjust="spacingAndGlyphs" textLength="86" x="673" y="265.8481">Auth response</text><polygon fill="#A80036" points="421.5,296.0469,411.5,300.0469,421.5,304.0469,417.5,300.0469" style="stroke:#A80036;stroke-width:1.0;"/><line style="stroke:#A80036;stroke-width:1.0;stroke-dasharray:2.0,2.0;" x1="415.5" x2="655" y1="300.0469" y2="300.0469"/><text fill="#000000" font-family="sans-serif" font-size="13" lengthAdjust="spacingAndGlyphs" textLength="86" x="427.5" y="294.981">Auth response</text><polygon fill="#A80036" points="577.5,325.1797,587.5,329.1797,577.5,333.1797,581.5,329.1797" style="stroke:#A80036;stroke-width:1.0;"/><line style="stroke:#A80036;stroke-width:1.0;" x1="410.5" x2="583.5" y1="329.1797" y2="329.1797"/><text fill="#000000" font-family="sans-serif" font-size="13" lengthAdjust="spacingAndGlyphs" textLength="155" x="417.5" y="324.1138">Chat ID, Token, TokenAlias</text><polygon fill="#A80036" points="242.5,354.3125,232.5,358.3125,242.5,362.3125,238.5,358.3125" style="stroke:#A80036;stroke-width:1.0;"/><line style="stroke:#A80036;stroke-width:1.0;stroke-dasharray:2.0,2.0;" x1="236.5" x2="409.5" y1="358.3125" y2="358.3125"/><text fill="#000000" font-family="sans-serif" font-size="13" lengthAdjust="spacingAndGlyphs" textLength="151" x="248.5" y="353.2466">Chat ID, TokenAlias status</text><polygon fill="#A80036" points="63.5,383.4453,53.5,387.4453,63.5,391.4453,59.5,387.4453" style="stroke:#A80036;stroke-width:1.0;"/><line style="stroke:#A80036;stroke-width:1.0;stroke-dasharray:2.0,2.0;" x1="57.5" x2="230.5" y1="387.4453" y2="387.4453"/><text fill="#000000" font-family="sans-serif" font-size="13" lengthAdjust="spacingAndGlyphs" textLength="151" x="69.5" y="382.3794">Chat ID, TokenAlias status</text><!--MD5=[cfca53bb43819e3f4775d6fcb57f642f]
@startuml
title Add Token Success Flow
actor       TelegramUser as user
participant Bot as bot
participant Hub as hub
database    Database    as db
participant Auth as auth
participant GitHub as github

user -> bot : Chat ID, Token, TokenAlias
bot -> hub : Chat ID, Token, TokenAlias
hub -> auth: Validate token
auth -> github: Auth token
github - -> auth: Auth response
auth - -> hub: Auth response
hub -> db: Chat ID, Token, TokenAlias
hub - -> bot: Chat ID, TokenAlias status
bot - -> user: Chat ID, TokenAlias status
@enduml

PlantUML version 1.2020.23(Sun Dec 13 19:14:58 GMT 2020)
(GPL source distribution)
Java Runtime: OpenJDK Runtime Environment
JVM: OpenJDK 64-Bit Server VM
Default Encoding: UTF-8
Language: en
Country: US
--></g></svg>