<?xml version="1.0" encoding="UTF-8" standalone="no"?><svg xmlns="http://www.w3.org/2000/svg" xmlns:xlink="http://www.w3.org/1999/xlink" contentScriptType="application/ecmascript" contentStyleType="text/css" height="488px" preserveAspectRatio="none" style="width:886px;height:488px;" version="1.1" viewBox="0 0 886 488" width="886px" zoomAndPan="magnify"><defs><filter height="300%" id="fdwztyoxplxg0" width="300%" x="-1" y="-1"><feGaussianBlur result="blurOut" stdDeviation="2.0"/><feColorMatrix in="blurOut" result="blurOut2" type="matrix" values="0 0 0 0 0 0 0 0 0 0 0 0 0 0 0 0 0 0 .4 0"/><feOffset dx="4.0" dy="4.0" in="blurOut2" result="blurOut3"/><feBlend in="SourceGraphic" in2="blurOut3" mode="normal"/></filter></defs><g><text fill="#000000" font-family="sans-serif" font-size="18" lengthAdjust="spacingAndGlyphs" textLength="194" x="343.5" y="28.708">Notifications Read Flow</text><line style="stroke:#A80036;stroke-width:1.0;stroke-dasharray:5.0,5.0;" x1="52" x2="52" y1="123.25" y2="404.3125"/><line style="stroke:#A80036;stroke-width:1.0;stroke-dasharray:5.0,5.0;" x1="309.5" x2="309.5" y1="123.25" y2="404.3125"/><line style="stroke:#A80036;stroke-width:1.0;stroke-dasharray:5.0,5.0;" x1="361.5" x2="361.5" y1="123.25" y2="404.3125"/><line style="stroke:#A80036;stroke-width:1.0;stroke-dasharray:5.0,5.0;" x1="506.5" x2="506.5" y1="123.25" y2="404.3125"/><line style="stroke:#A80036;stroke-width:1.0;stroke-dasharray:5.0,5.0;" x1="579.5" x2="579.5" y1="123.25" y2="404.3125"/><line style="stroke:#A80036;stroke-width:1.0;stroke-dasharray:5.0,5.0;" x1="703" x2="703" y1="123.25" y2="404.3125"/><line style="stroke:#A80036;stroke-width:1.0;stroke-dasharray:5.0,5.0;" x1="844" x2="844" y1="123.25" y2="404.3125"/><text fill="#000000" font-family="sans-serif" font-size="14" lengthAdjust="spacingAndGlyphs" textLength="89" x="5" y="119.9482">TelegramUser</text><ellipse cx="52.5" cy="49.9531" fill="#FEFECE" filter="url(#fdwztyoxplxg0)" rx="8" ry="8" style="stroke:#A80036;stroke-width:2.0;"/><path d="M52.5,57.9531 L52.5,84.9531 M39.5,65.9531 L65.5,65.9531 M52.5,84.9531 L39.5,99.9531 M52.5,84.9531 L65.5,99.9531 " fill="none" filter="url(#fdwztyoxplxg0)" style="stroke:#A80036;stroke-width:2.0;"/><text fill="#000000" font-family="sans-serif" font-size="14" lengthAdjust="spacingAndGlyphs" textLength="89" x="5" y="416.3076">TelegramUser</text><ellipse cx="52.5" cy="429.6094" fill="#FEFECE" filter="url(#fdwztyoxplxg0)" rx="8" ry="8" style="stroke:#A80036;stroke-width:2.0;"/><path d="M52.5,437.6094 L52.5,464.6094 M39.5,445.6094 L65.5,445.6094 M52.5,464.6094 L39.5,479.6094 M52.5,464.6094 L65.5,479.6094 " fill="none" filter="url(#fdwztyoxplxg0)" style="stroke:#A80036;stroke-width:2.0;"/><rect fill="#FEFECE" filter="url(#fdwztyoxplxg0)" height="30.2969" style="stroke:#A80036;stroke-width:1.5;" width="36" x="289.5" y="87.9531"/><text fill="#000000" font-family="sans-serif" font-size="14" lengthAdjust="spacingAndGlyphs" textLength="22" x="296.5" y="107.9482">Bot</text><rect fill="#FEFECE" filter="url(#fdwztyoxplxg0)" height="30.2969" style="stroke:#A80036;stroke-width:1.5;" width="36" x="289.5" y="403.3125"/><text fill="#000000" font-family="sans-serif" font-size="14" lengthAdjust="spacingAndGlyphs" textLength="22" x="296.5" y="423.3076">Bot</text><rect fill="#FEFECE" filter="url(#fdwztyoxplxg0)" height="30.2969" style="stroke:#A80036;stroke-width:1.5;" width="40" x="339.5" y="87.9531"/><text fill="#000000" font-family="sans-serif" font-size="14" lengthAdjust="spacingAndGlyphs" textLength="26" x="346.5" y="107.9482">Hub</text><rect fill="#FEFECE" filter="url(#fdwztyoxplxg0)" height="30.2969" style="stroke:#A80036;stroke-width:1.5;" width="40" x="339.5" y="403.3125"/><text fill="#000000" font-family="sans-serif" font-size="14" lengthAdjust="spacingAndGlyphs" textLength="26" x="346.5" y="423.3076">Hub</text><path d="M480.5,96.9531 L532.5,96.9531 C537.5,96.9531 537.5,110.1016 537.5,110.1016 C537.5,110.1016 537.5,123.25 532.5,123.25 L480.5,123.25 C475.5,123.25 475.5,110.1016 475.5,110.1016 C475.5,110.1016 475.5,96.9531 480.5,96.9531 " fill="#FEFECE" filter="url(#fdwztyoxplxg0)" style="stroke:#A80036;stroke-width:2.0;"/><path d="M532.5,96.9531 C527.5,96.9531 527.5,110.1016 527.5,110.1016 C527.5,123.25 532.5,123.25 532.5,123.25 " fill="none" style="stroke:#A80036;stroke-width:2.0;"/><text fill="#000000" font-family="sans-serif" font-size="14" lengthAdjust="spacingAndGlyphs" textLength="42" x="480.5" y="114.9482">Broker</text><path d="M480.5,403.3125 L532.5,403.3125 C537.5,403.3125 537.5,416.4609 537.5,416.4609 C537.5,416.4609 537.5,429.6094 532.5,429.6094 L480.5,429.6094 C475.5,429.6094 475.5,416.4609 475.5,416.4609 C475.5,416.4609 475.5,403.3125 480.5,403.3125 " fill="#FEFECE" filter="url(#fdwztyoxplxg0)" style="stroke:#A80036;stroke-width:2.0;"/><path d="M532.5,403.3125 C527.5,403.3125 527.5,416.4609 527.5,416.4609 C527.5,429.6094 532.5,429.6094 532.5,429.6094 " fill="none" style="stroke:#A80036;stroke-width:2.0;"/><text fill="#000000" font-family="sans-serif" font-size="14" lengthAdjust="spacingAndGlyphs" textLength="42" x="480.5" y="421.3076">Broker</text><text fill="#000000" font-family="sans-serif" font-size="14" lengthAdjust="spacingAndGlyphs" textLength="59" x="547.5" y="119.9482">Database</text><path d="M562,70.9531 C562,60.9531 580,60.9531 580,60.9531 C580,60.9531 598,60.9531 598,70.9531 L598,96.9531 C598,106.9531 580,106.9531 580,106.9531 C580,106.9531 562,106.9531 562,96.9531 L562,70.9531 " fill="#FEFECE" filter="url(#fdwztyoxplxg0)" style="stroke:#000000;stroke-width:1.5;"/><path d="M562,70.9531 C562,80.9531 580,80.9531 580,80.9531 C580,80.9531 598,80.9531 598,70.9531 " fill="none" style="stroke:#000000;stroke-width:1.5;"/><text fill="#000000" font-family="sans-serif" font-size="14" lengthAdjust="spacingAndGlyphs" textLength="59" x="547.5" y="416.3076">Database</text><path d="M562,429.6094 C562,419.6094 580,419.6094 580,419.6094 C580,419.6094 598,419.6094 598,429.6094 L598,455.6094 C598,465.6094 580,465.6094 580,465.6094 C580,465.6094 562,465.6094 562,455.6094 L562,429.6094 " fill="#FEFECE" filter="url(#fdwztyoxplxg0)" style="stroke:#000000;stroke-width:1.5;"/><path d="M562,429.6094 C562,439.6094 580,439.6094 580,439.6094 C580,439.6094 598,439.6094 598,429.6094 " fill="none" style="stroke:#000000;stroke-width:1.5;"/><rect fill="#FEFECE" filter="url(#fdwztyoxplxg0)" height="30.2969" style="stroke:#A80036;stroke-width:1.5;" width="95" x="654" y="87.9531"/><text fill="#000000" font-family="sans-serif" font-size="14" lengthAdjust="spacingAndGlyphs" textLength="81" x="661" y="107.9482">Notifications</text><rect fill="#FEFECE" filter="url(#fdwztyoxplxg0)" height="30.2969" style="stroke:#A80036;stroke-width:1.5;" width="95" x="654" y="403.3125"/><text fill="#000000" font-family="sans-serif" font-size="14" lengthAdjust="spacingAndGlyphs" textLength="81" x="661" y="423.3076">Notifications</text><rect fill="#FEFECE" filter="url(#fdwztyoxplxg0)" height="30.2969" style="stroke:#A80036;stroke-width:1.5;" width="59" x="813" y="87.9531"/><text fill="#000000" font-family="sans-serif" font-size="14" lengthAdjust="spacingAndGlyphs" textLength="45" x="820" y="107.9482">GitHub</text><rect fill="#FEFECE" filter="url(#fdwztyoxplxg0)" height="30.2969" style="stroke:#A80036;stroke-width:1.5;" width="59" x="813" y="403.3125"/><text fill="#000000" font-family="sans-serif" font-size="14" lengthAdjust="spacingAndGlyphs" textLength="45" x="820" y="423.3076">GitHub</text><polygon fill="#A80036" points="372.5,135.25,362.5,139.25,372.5,143.25,368.5,139.25" style="stroke:#A80036;stroke-width:1.0;"/><line style="stroke:#A80036;stroke-width:1.0;" x1="366.5" x2="702.5" y1="139.25" y2="139.25"/><polygon fill="#A80036" points="568,164.3828,578,168.3828,568,172.3828,572,168.3828" style="stroke:#A80036;stroke-width:1.0;"/><line style="stroke:#A80036;stroke-width:1.0;" x1="361.5" x2="574" y1="168.3828" y2="168.3828"/><text fill="#000000" font-family="sans-serif" font-size="13" lengthAdjust="spacingAndGlyphs" textLength="103" x="368.5" y="163.3169">All toggled aliases</text><polygon fill="#A80036" points="372.5,193.5156,362.5,197.5156,372.5,201.5156,368.5,197.5156" style="stroke:#A80036;stroke-width:1.0;"/><line style="stroke:#A80036;stroke-width:1.0;stroke-dasharray:2.0,2.0;" x1="366.5" x2="579" y1="197.5156" y2="197.5156"/><text fill="#000000" font-family="sans-serif" font-size="13" lengthAdjust="spacingAndGlyphs" textLength="152" x="378.5" y="192.4497">Chat ID:Token, TokenAlias</text><polygon fill="#A80036" points="691.5,222.6484,701.5,226.6484,691.5,230.6484,695.5,226.6484" style="stroke:#A80036;stroke-width:1.0;"/><line style="stroke:#A80036;stroke-width:1.0;stroke-dasharray:2.0,2.0;" x1="361.5" x2="697.5" y1="226.6484" y2="226.6484"/><text fill="#000000" font-family="sans-serif" font-size="13" lengthAdjust="spacingAndGlyphs" textLength="152" x="368.5" y="221.5825">Chat ID:Token, TokenAlias</text><polygon fill="#A80036" points="832.5,251.7813,842.5,255.7813,832.5,259.7813,836.5,255.7813" style="stroke:#A80036;stroke-width:1.0;"/><line style="stroke:#A80036;stroke-width:1.0;" x1="703.5" x2="838.5" y1="255.7813" y2="255.7813"/><text fill="#000000" font-family="sans-serif" font-size="13" lengthAdjust="spacingAndGlyphs" textLength="92" x="710.5" y="250.7153">Polling by token</text><polygon fill="#A80036" points="714.5,280.9141,704.5,284.9141,714.5,288.9141,710.5,284.9141" style="stroke:#A80036;stroke-width:1.0;"/><line style="stroke:#A80036;stroke-width:1.0;stroke-dasharray:2.0,2.0;" x1="708.5" x2="843.5" y1="284.9141" y2="284.9141"/><text fill="#000000" font-family="sans-serif" font-size="13" lengthAdjust="spacingAndGlyphs" textLength="117" x="720.5" y="279.8481">Notifications Stream</text><polygon fill="#A80036" points="517.5,310.0469,507.5,314.0469,517.5,318.0469,513.5,314.0469" style="stroke:#A80036;stroke-width:1.0;"/><line style="stroke:#A80036;stroke-width:1.0;" x1="511.5" x2="702.5" y1="314.0469" y2="314.0469"/><text fill="#000000" font-family="sans-serif" font-size="13" lengthAdjust="spacingAndGlyphs" textLength="173" x="523.5" y="308.981">Tuple ID, Notifications Stream</text><polygon fill="#A80036" points="494.5,324.0469,504.5,328.0469,494.5,332.0469,498.5,328.0469" style="stroke:#A80036;stroke-width:1.0;"/><line style="stroke:#A80036;stroke-width:1.0;" x1="309.5" x2="500.5" y1="328.0469" y2="328.0469"/><polygon fill="#A80036" points="320.5,353.1797,310.5,357.1797,320.5,361.1797,316.5,357.1797" style="stroke:#A80036;stroke-width:1.0;"/><line style="stroke:#A80036;stroke-width:1.0;stroke-dasharray:2.0,2.0;" x1="314.5" x2="505.5" y1="357.1797" y2="357.1797"/><text fill="#000000" font-family="sans-serif" font-size="13" lengthAdjust="spacingAndGlyphs" textLength="173" x="326.5" y="352.1138">Tuple ID, Notifications Stream</text><polygon fill="#A80036" points="63.5,382.3125,53.5,386.3125,63.5,390.3125,59.5,386.3125" style="stroke:#A80036;stroke-width:1.0;"/><line style="stroke:#A80036;stroke-width:1.0;stroke-dasharray:2.0,2.0;" x1="57.5" x2="308.5" y1="386.3125" y2="386.3125"/><text fill="#000000" font-family="sans-serif" font-size="13" lengthAdjust="spacingAndGlyphs" textLength="233" x="69.5" y="381.2466">Chat ID, TokenAlias:Notifications Stream</text><!--MD5=[5f638cbd3dd7a17c53c7f8c1fc66dd9e]
@startuml
title Notifications Read Flow
actor       TelegramUser as user
participant Bot as bot
participant Hub as hub
queue Broker as broker
database    Database    as db
participant Notifications as notifications
participant GitHub as github

notifications -> hub
hub -> db: All toggled aliases
db - -> hub: Chat ID:Token, TokenAlias
hub - -> notifications: Chat ID:Token, TokenAlias
notifications -> github: Polling by token
github - -> notifications: Notifications Stream
notifications -> broker: Tuple ID, Notifications Stream
bot -> broker
broker - -> bot: Tuple ID, Notifications Stream
bot - -> user: Chat ID, TokenAlias:Notifications Stream
@enduml

PlantUML version 1.2020.23(Sun Dec 13 19:14:58 GMT 2020)
(GPL source distribution)
Java Runtime: OpenJDK Runtime Environment
JVM: OpenJDK 64-Bit Server VM
Default Encoding: UTF-8
Language: en
Country: US
--></g></svg>