<?xml version="1.0" encoding="UTF-8" standalone="no"?><svg xmlns="http://www.w3.org/2000/svg" xmlns:xlink="http://www.w3.org/1999/xlink" contentScriptType="application/ecmascript" contentStyleType="text/css" height="314px" preserveAspectRatio="none" style="width:299px;height:314px;" version="1.1" viewBox="0 0 299 314" width="299px" zoomAndPan="magnify"><defs><filter height="300%" id="fvxhw8p894o6c" width="300%" x="-1" y="-1"><feGaussianBlur result="blurOut" stdDeviation="2.0"/><feColorMatrix in="blurOut" result="blurOut2" type="matrix" values="0 0 0 0 0 0 0 0 0 0 0 0 0 0 0 0 0 0 .4 0"/><feOffset dx="4.0" dy="4.0" in="blurOut2" result="blurOut3"/><feBlend in="SourceGraphic" in2="blurOut3" mode="normal"/></filter></defs><g><text fill="#000000" font-family="sans-serif" font-size="18" lengthAdjust="spacingAndGlyphs" textLength="176" x="63.75" y="28.708">Register Chat ID Flow</text><line style="stroke:#A80036;stroke-width:1.0;stroke-dasharray:5.0,5.0;" x1="52" x2="52" y1="123.25" y2="230.6484"/><line style="stroke:#A80036;stroke-width:1.0;stroke-dasharray:5.0,5.0;" x1="130" x2="130" y1="123.25" y2="230.6484"/><line style="stroke:#A80036;stroke-width:1.0;stroke-dasharray:5.0,5.0;" x1="198" x2="198" y1="123.25" y2="230.6484"/><line style="stroke:#A80036;stroke-width:1.0;stroke-dasharray:5.0,5.0;" x1="265.5" x2="265.5" y1="123.25" y2="230.6484"/><text fill="#000000" font-family="sans-serif" font-size="14" lengthAdjust="spacingAndGlyphs" textLength="89" x="5" y="119.9482">TelegramUser</text><ellipse cx="52.5" cy="49.9531" fill="#FEFECE" filter="url(#fvxhw8p894o6c)" rx="8" ry="8" style="stroke:#A80036;stroke-width:2.0;"/><path d="M52.5,57.9531 L52.5,84.9531 M39.5,65.9531 L65.5,65.9531 M52.5,84.9531 L39.5,99.9531 M52.5,84.9531 L65.5,99.9531 " fill="none" filter="url(#fvxhw8p894o6c)" style="stroke:#A80036;stroke-width:2.0;"/><text fill="#000000" font-family="sans-serif" font-size="14" lengthAdjust="spacingAndGlyphs" textLength="89" x="5" y="242.6436">TelegramUser</text><ellipse cx="52.5" cy="255.9453" fill="#FEFECE" filter="url(#fvxhw8p894o6c)" rx="8" ry="8" style="stroke:#A80036;stroke-width:2.0;"/><path d="M52.5,263.9453 L52.5,290.9453 M39.5,271.9453 L65.5,271.9453 M52.5,290.9453 L39.5,305.9453 M52.5,290.9453 L65.5,305.9453 " fill="none" filter="url(#fvxhw8p894o6c)" style="stroke:#A80036;stroke-width:2.0;"/><rect fill="#FEFECE" filter="url(#fvxhw8p894o6c)" height="30.2969" style="stroke:#A80036;stroke-width:1.5;" width="36" x="110" y="87.9531"/><text fill="#000000" font-family="sans-serif" font-size="14" lengthAdjust="spacingAndGlyphs" textLength="22" x="117" y="107.9482">Bot</text><rect fill="#FEFECE" filter="url(#fvxhw8p894o6c)" height="30.2969" style="stroke:#A80036;stroke-width:1.5;" width="36" x="110" y="229.6484"/><text fill="#000000" font-family="sans-serif" font-size="14" lengthAdjust="spacingAndGlyphs" textLength="22" x="117" y="249.6436">Bot</text><rect fill="#FEFECE" filter="url(#fvxhw8p894o6c)" height="30.2969" style="stroke:#A80036;stroke-width:1.5;" width="40" x="176" y="87.9531"/><text fill="#000000" font-family="sans-serif" font-size="14" lengthAdjust="spacingAndGlyphs" textLength="26" x="183" y="107.9482">Hub</text><rect fill="#FEFECE" filter="url(#fvxhw8p894o6c)" height="30.2969" style="stroke:#A80036;stroke-width:1.5;" width="40" x="176" y="229.6484"/><text fill="#000000" font-family="sans-serif" font-size="14" lengthAdjust="spacingAndGlyphs" textLength="26" x="183" y="249.6436">Hub</text><text fill="#000000" font-family="sans-serif" font-size="14" lengthAdjust="spacingAndGlyphs" textLength="59" x="233.5" y="119.9482">Database</text><path d="M248,70.9531 C248,60.9531 266,60.9531 266,60.9531 C266,60.9531 284,60.9531 284,70.9531 L284,96.9531 C284,106.9531 266,106.9531 266,106.9531 C266,106.9531 248,106.9531 248,96.9531 L248,70.9531 " fill="#FEFECE" filter="url(#fvxhw8p894o6c)" style="stroke:#000000;stroke-width:1.5;"/><path d="M248,70.9531 C248,80.9531 266,80.9531 266,80.9531 C266,80.9531 284,80.9531 284,70.9531 " fill="none" style="stroke:#000000;stroke-width:1.5;"/><text fill="#000000" font-family="sans-serif" font-size="14" lengthAdjust="spacingAndGlyphs" textLength="59" x="233.5" y="242.6436">Database</text><path d="M248,255.9453 C248,245.9453 266,245.9453 266,245.9453 C266,245.9453 284,245.9453 284,255.9453 L284,281.9453 C284,291.9453 266,291.9453 266,291.9453 C266,291.9453 248,291.9453 248,281.9453 L248,255.9453 " fill="#FEFECE" filter="url(#fvxhw8p894o6c)" style="stroke:#000000;stroke-width:1.5;"/><path d="M248,255.9453 C248,265.9453 266,265.9453 266,265.9453 C266,265.9453 284,265.9453 284,255.9453 " fill="none" style="stroke:#000000;stroke-width:1.5;"/><polygon fill="#A80036" points="118,150.3828,128,154.3828,118,158.3828,122,154.3828" style="stroke:#A80036;stroke-width:1.0;"/><line style="stroke:#A80036;stroke-width:1.0;" x1="52.5" x2="124" y1="154.3828" y2="154.3828"/><text fill="#000000" font-family="sans-serif" font-size="13" lengthAdjust="spacingAndGlyphs" textLength="45" x="59.5" y="149.3169">/chat-id</text><polygon fill="#A80036" points="186,179.5156,196,183.5156,186,187.5156,190,183.5156" style="stroke:#A80036;stroke-width:1.0;"/><line style="stroke:#A80036;stroke-width:1.0;" x1="130" x2="192" y1="183.5156" y2="183.5156"/><text fill="#000000" font-family="sans-serif" font-size="13" lengthAdjust="spacingAndGlyphs" textLength="44" x="137" y="178.4497">Chat ID</text><polygon fill="#A80036" points="254,208.6484,264,212.6484,254,216.6484,258,212.6484" style="stroke:#A80036;stroke-width:1.0;"/><line style="stroke:#A80036;stroke-width:1.0;" x1="198" x2="260" y1="212.6484" y2="212.6484"/><text fill="#000000" font-family="sans-serif" font-size="13" lengthAdjust="spacingAndGlyphs" textLength="44" x="205" y="207.5825">Chat ID</text><!--MD5=[0bdc9f4f64a70dc211dc68bfca79a8d4]
@startuml
title Register Chat ID Flow
actor       TelegramUser as user
participant Bot as bot
participant Hub as hub
database    Database    as db

user -> bot: /chat-id
bot -> hub: Chat ID
hub -> db: Chat ID
@enduml

PlantUML version 1.2020.23(Sun Dec 13 19:14:58 GMT 2020)
(GPL source distribution)
Java Runtime: OpenJDK Runtime Environment
JVM: OpenJDK 64-Bit Server VM
Default Encoding: UTF-8
Language: en
Country: US
--></g></svg>